<svg xmlns="http://www.w3.org/2000/svg" width="154" height="85" viewBox="0 0 154 85">
  <g id="ungahsampul" transform="translate(-445 -803)">
    <g id="Rectangle_214" data-name="Rectangle 214" transform="translate(445 803)" fill="#fff" stroke="#707070" stroke-width="1" stroke-dasharray="5 5">
      <rect width="154" height="85" rx="5" stroke="none"/>
      <rect x="0.5" y="0.5" width="153" height="84" rx="4.5" fill="none"/>
    </g>
    <g id="Group_370" data-name="Group 370" transform="translate(-0.111 11)">
      <path id="Icon_metro-file-picture" data-name="Icon metro-file-picture" d="M19.044,18.9H6.923V16.473l3.636-6.06,4.981,6.06,3.5-2.424Zm0-7.878A1.818,1.818,0,1,1,17.225,9.2,1.818,1.818,0,0,1,19.044,11.019Zm1.625-4.752a17.173,17.173,0,0,0-1.651-1.888,17.177,17.177,0,0,0-1.888-1.651,3.021,3.021,0,0,0-1.722-.8H6.014A1.517,1.517,0,0,0,4.5,3.443V19.806a1.517,1.517,0,0,0,1.515,1.515H19.953a1.517,1.517,0,0,0,1.515-1.515V7.988a3.02,3.02,0,0,0-.8-1.722ZM18.161,5.235a16.531,16.531,0,0,1,1.375,1.541H16.619V3.861a16.514,16.514,0,0,1,1.541,1.374Zm2.1,14.571a.307.307,0,0,1-.3.3H6.014a.307.307,0,0,1-.3-.3V3.443a.307.307,0,0,1,.3-.3h9.394V7.382a.606.606,0,0,0,.606.606h4.242Z" transform="translate(506.612 824.875)"/>
      <g id="Icon_feather-plus" data-name="Icon feather-plus" transform="translate(517.896 816.219)">
        <path id="Path_693" data-name="Path 693" d="M18,7.5v7.562" transform="translate(-6.719)" fill="none" stroke="#000" stroke-linejoin="round" stroke-width="1.5"/>
        <path id="Path_694" data-name="Path 694" d="M7.5,18h7.562" transform="translate(0 -6.719)" fill="none" stroke="#000" stroke-linejoin="round" stroke-width="1.5"/>
      </g>
    </g>
  </g>
</svg>
